<svg width="88" height="24" viewBox="0 0 88 24" fill="none" xmlns="http://www.w3.org/2000/svg">
<path d="M79.5625 12.0625C79.5625 10.7292 79.151 9.69795 78.3281 8.96875C77.5052 8.23958 76.4166 7.875 75.0625 7.875C73.9166 7.875 72.9323 8.27083 72.1094 9.0625C71.2865 9.85415 70.875 10.802 70.875 11.9062C70.875 12.5312 70.9583 13.0938 71.125 13.5938C71.2917 14.0834 71.5156 14.4947 71.7969 14.8281C72.0885 15.151 72.4323 15.4218 72.8281 15.6406C73.2239 15.8489 73.6354 16.0001 74.0625 16.0938C74.5 16.1874 74.9635 16.2344 75.4531 16.2344C76.6406 16.2344 77.7239 15.9428 78.7031 15.3594V16.4844C77.6927 17.0157 76.6041 17.2812 75.4375 17.2812C74.6875 17.2812 73.9791 17.1823 73.3125 16.9844C72.6562 16.7761 72.0573 16.4688 71.5156 16.0625C70.974 15.6459 70.5417 15.0833 70.2187 14.375C69.9062 13.6562 69.75 12.8334 69.75 11.9062C69.75 10.4688 70.2552 9.25005 71.2656 8.25C72.276 7.25 73.5416 6.75 75.0625 6.75C76.7396 6.75 78.0937 7.22396 79.125 8.17187C80.1666 9.10937 80.6875 10.4063 80.6875 12.0625V23.1562H79.5625V12.0625ZM82.9375 12.0625V23.1562H81.8125V12.0625C81.8125 10.0938 81.1823 8.53125 79.9218 7.375C78.6614 6.20833 77.0416 5.625 75.0625 5.625C73.2291 5.625 71.6979 6.23437 70.4687 7.45313C69.2396 8.67187 68.625 10.1562 68.625 11.9062C68.625 12.9688 68.8073 13.9218 69.1719 14.7656C69.5469 15.6093 70.0521 16.2865 70.6875 16.7969C71.3229 17.3073 72.0312 17.698 72.8125 17.9688C73.6041 18.2291 74.4375 18.3594 75.3125 18.3594C76.5 18.3594 77.6302 18.0834 78.7031 17.5312V18.7188C77.5781 19.1874 76.4427 19.4219 75.2968 19.4219C74.2656 19.4219 73.2864 19.2656 72.3594 18.9531C71.4323 18.6302 70.6042 18.1667 69.875 17.5625C69.1458 16.948 68.5677 16.1563 68.1406 15.1875C67.7135 14.2084 67.5 13.1145 67.5 11.9062C67.5 9.85415 68.224 8.10937 69.6719 6.67187C71.1302 5.22396 72.9271 4.5 75.0625 4.5C76.5625 4.5 77.9062 4.80729 79.0937 5.42187C80.2812 6.02604 81.2187 6.90625 81.9062 8.0625C82.5937 9.21875 82.9375 10.5521 82.9375 12.0625ZM85.1875 12.0625V23.1562H84.0625V12.0625C84.0625 10.3438 83.6666 8.82292 82.875 7.5C82.0937 6.16667 81.0208 5.14583 79.6562 4.4375C78.2916 3.72917 76.7604 3.375 75.0625 3.375C73.4479 3.375 71.974 3.76042 70.6406 4.53125C69.3073 5.29167 68.2604 6.32292 67.5 7.625C66.75 8.92708 66.375 10.3542 66.375 11.9062C66.375 13.2395 66.6198 14.4584 67.1094 15.5625C67.599 16.6563 68.2552 17.5572 69.0781 18.2656C69.9115 18.9739 70.8542 19.5261 71.9062 19.9219C72.9687 20.3073 74.0781 20.5 75.2344 20.5C76.4114 20.5 77.5677 20.2552 78.7031 19.7656V20.9062C77.5156 21.3541 76.3489 21.5781 75.2031 21.5781C73.401 21.5781 71.7448 21.1719 70.2344 20.3594C68.724 19.5469 67.5156 18.3958 66.6094 16.9062C65.7031 15.4167 65.25 13.75 65.25 11.9062C65.25 10.5938 65.5 9.34375 66 8.15625C66.5104 6.96875 67.1979 5.94271 68.0625 5.07813C68.9271 4.21354 69.9687 3.52604 71.1875 3.01563C72.4062 2.50521 73.6979 2.25 75.0625 2.25C76.9687 2.25 78.6875 2.65625 80.2187 3.46875C81.7604 4.28125 82.9739 5.4375 83.8594 6.9375C84.7448 8.4375 85.1875 10.1459 85.1875 12.0625ZM87.4375 12.0625V23.1562H86.3125V12.0625C86.3125 9.93745 85.8177 8.04167 84.8281 6.375C83.8385 4.69792 82.4896 3.40625 80.7812 2.5C79.0729 1.58333 77.1666 1.125 75.0625 1.125C73.0416 1.125 71.1927 1.60937 69.5156 2.57813C67.8385 3.54687 66.5208 4.85937 65.5625 6.51563C64.6042 8.16146 64.125 9.95835 64.125 11.9062C64.125 13.1875 64.3281 14.4063 64.7344 15.5625C65.151 16.7084 65.7135 17.7135 66.4219 18.5781C67.1406 19.4322 67.9635 20.1719 68.8906 20.7969C69.8281 21.4219 70.8333 21.8959 71.9062 22.2188C72.9896 22.5416 74.0885 22.7031 75.2031 22.7031C76.4323 22.7031 77.5989 22.4687 78.7031 22V23.1562C77.5468 23.5624 76.3594 23.7656 75.1406 23.7656C73.8802 23.7656 72.651 23.5886 71.4531 23.2344C70.2656 22.8803 69.1615 22.3594 68.1406 21.6719C67.1302 20.974 66.2396 20.1562 65.4687 19.2188C64.6979 18.2709 64.0937 17.1667 63.6562 15.9062C63.2187 14.6458 63 13.3125 63 11.9062C63 10.2917 63.3021 8.75521 63.9062 7.29687C64.5208 5.82813 65.3542 4.5625 66.4062 3.5C67.4687 2.42708 68.75 1.57813 70.25 0.95313C71.7604 0.31771 73.3646 0 75.0625 0C76.7916 0 78.4166 0.29167 79.9375 0.875C81.4583 1.45833 82.7708 2.27083 83.875 3.3125C84.9791 4.34375 85.8489 5.61458 86.4844 7.125C87.1198 8.63542 87.4375 10.2813 87.4375 12.0625Z" fill="black"/>
<path d="M5.04 22.84C4.192 22.84 3.344 22.784 2.496 22.672C1.648 22.576 0.928 22.424 0.336 22.216V20.2C0.976 20.408 1.712 20.568 2.544 20.68C3.376 20.792 4.168 20.848 4.92 20.848C6.072 20.848 6.912 20.784 7.44 20.656C7.968 20.528 8.232 20.24 8.232 19.792C8.232 19.456 8.104 19.216 7.848 19.072C7.592 18.944 7.104 18.88 6.384 18.88H3.312C1.248 18.88 0.216 18.152 0.216 16.696C0.216 16.232 0.352 15.8 0.624 15.4C0.896 15 1.328 14.696 1.92 14.488C1.264 14.168 0.776 13.728 0.456 13.168C0.152 12.608 0 11.936 0 11.152C0 9.696 0.432 8.64 1.296 7.984C2.176 7.328 3.488 7 5.232 7C5.6 7 5.984 7.032 6.384 7.096C6.784 7.144 7.096 7.192 7.32 7.24H11.496L11.424 8.944H9.504C9.808 9.2 10.032 9.52 10.176 9.904C10.32 10.288 10.392 10.704 10.392 11.152C10.392 12.368 10.024 13.328 9.288 14.032C8.552 14.72 7.44 15.064 5.952 15.064C5.696 15.064 5.456 15.056 5.232 15.04C5.024 15.008 4.792 14.976 4.536 14.944C4.056 14.992 3.624 15.12 3.24 15.328C2.856 15.536 2.664 15.816 2.664 16.168C2.664 16.408 2.76 16.584 2.952 16.696C3.144 16.792 3.464 16.84 3.912 16.84H7.104C8.24 16.84 9.112 17.088 9.72 17.584C10.344 18.064 10.656 18.768 10.656 19.696C10.656 20.816 10.168 21.616 9.192 22.096C8.232 22.592 6.848 22.84 5.04 22.84ZM5.232 13.408C6.272 13.408 6.992 13.232 7.392 12.88C7.808 12.528 8.016 11.928 8.016 11.08C8.016 10.232 7.808 9.616 7.392 9.232C6.992 8.848 6.272 8.656 5.232 8.656C4.256 8.656 3.544 8.84 3.096 9.208C2.648 9.576 2.424 10.2 2.424 11.08C2.424 11.896 2.632 12.488 3.048 12.856C3.48 13.224 4.208 13.408 5.232 13.408ZM13.1117 18.616V7.24H15.5117L15.6557 8.56C16.1997 8.208 16.8477 7.888 17.5997 7.6C18.3517 7.312 19.0957 7.112 19.8317 7V8.992C19.3837 9.072 18.8957 9.192 18.3677 9.352C17.8557 9.496 17.3677 9.664 16.9037 9.856C16.4397 10.032 16.0477 10.216 15.7277 10.408V18.616H13.1117ZM25.8407 18.856C24.4807 18.856 23.4327 18.48 22.6967 17.728C21.9767 16.976 21.6167 15.872 21.6167 14.416V7.24H24.2327V14.416C24.2327 15.264 24.4407 15.888 24.8567 16.288C25.2727 16.688 25.9127 16.888 26.7767 16.888C27.4167 16.888 28.0087 16.768 28.5527 16.528C29.0967 16.288 29.5687 15.968 29.9687 15.568V7.24H32.5607V18.616H30.1847L30.0647 17.44C29.5527 17.84 28.9447 18.176 28.2407 18.448C27.5367 18.72 26.7367 18.856 25.8407 18.856ZM35.6117 23.8V7.24H37.8677L38.0117 8.368C38.5237 7.904 39.0837 7.56 39.6917 7.336C40.2997 7.112 41.0197 7 41.8517 7C43.4837 7 44.7557 7.448 45.6677 8.344C46.5797 9.224 47.0357 10.688 47.0357 12.736C47.0357 14.784 46.5637 16.32 45.6197 17.344C44.6757 18.352 43.3877 18.856 41.7557 18.856C40.3797 18.856 39.2037 18.536 38.2277 17.896V23.8H35.6117ZM41.0837 16.888C43.2917 16.888 44.3957 15.496 44.3957 12.712C44.3957 11.368 44.1477 10.416 43.6517 9.856C43.1557 9.28 42.3237 8.992 41.1557 8.992C39.9877 8.992 39.0117 9.392 38.2277 10.192V15.88C38.5957 16.184 39.0037 16.432 39.4517 16.624C39.9157 16.8 40.4597 16.888 41.0837 16.888ZM55.0284 18.856C52.9804 18.856 51.4764 18.344 50.5164 17.32C49.5724 16.296 49.1004 14.832 49.1004 12.928C49.1004 11.024 49.5804 9.56 50.5404 8.536C51.5004 7.512 52.9964 7 55.0284 7C57.0764 7 58.5804 7.512 59.5404 8.536C60.5004 9.56 60.9804 11.024 60.9804 12.928C60.9804 14.832 60.5004 16.296 59.5404 17.32C58.5964 18.344 57.0924 18.856 55.0284 18.856ZM55.0284 16.648C56.2284 16.648 57.0764 16.36 57.5724 15.784C58.0844 15.192 58.3404 14.24 58.3404 12.928C58.3404 11.616 58.0844 10.672 57.5724 10.096C57.0764 9.52 56.2284 9.232 55.0284 9.232C53.8444 9.232 52.9964 9.52 52.4844 10.096C51.9884 10.672 51.7404 11.616 51.7404 12.928C51.7404 14.24 51.9884 15.192 52.4844 15.784C52.9964 16.36 53.8444 16.648 55.0284 16.648Z" fill="black"/>
</svg>
